<?xml version="1.0" standalone="no"?><svg xmlns="http://www.w3.org/2000/svg" viewBox="0 0 1440 320"><path fill="#ff328881" fill-opacity="0.85" d="M0,96L40,96C80,96,160,96,240,101.3C320,107,400,117,480,133.3C560,149,640,171,720,149.3C800,128,880,64,960,58.7C1040,53,1120,107,1200,138.7C1280,171,1360,181,1400,186.7L1440,192L1440,320L1400,320C1360,320,1280,320,1200,320C1120,320,1040,320,960,320C880,320,800,320,720,320C640,320,560,320,480,320C400,320,320,320,240,320C160,320,80,320,40,320L0,320Z"></path></svg>